M48
; DRILL file {KiCad (5.1.10)-1} date 02/14/22 22:32:18
; FORMAT={-:-/ absolute / inch / decimal}
; #@! TF.CreationDate,2022-02-14T22:32:18+08:00
; #@! TF.GenerationSoftware,Kicad,Pcbnew,(5.1.10)-1
FMAT,2
INCH
T1C0.0157
T2C0.0394
T3C0.0669
T4C0.1181
T5C0.1575
%
G90
G05
T1
X7.8Y-4.55
X7.95Y-4.55
T2
X7.1Y-4.25
X7.85Y-3.8
X7.85Y-4.7
X8.1Y-4.25
T3
X7.4Y-4.25
X7.8Y-4.25
T4
X7.15Y-3.8
X7.15Y-4.7
X7.45Y-4.35
X7.7Y-4.45
X8.05Y-3.8
X8.05Y-4.7
X14.3Y-7.6
X14.3Y-7.6
X15.55Y-7.85
X15.55Y-7.85
X15.6Y-7.95
T5
X7.6Y-4.25
T0
M30
