%TF.GenerationSoftware,KiCad,Pcbnew,(5.1.10)-1*%
%TF.CreationDate,2022-02-15T17:38:39+08:00*%
%TF.ProjectId,single_switch_pcb,73696e67-6c65-45f7-9377-697463685f70,rev?*%
%TF.SameCoordinates,Original*%
%TF.FileFunction,Copper,L1,Top*%
%TF.FilePolarity,Positive*%
%FSLAX46Y46*%
G04 Gerber Fmt 4.6, Leading zero omitted, Abs format (unit mm)*
G04 Created by KiCad (PCBNEW (5.1.10)-1) date 2022-02-15 17:38:39*
%MOMM*%
%LPD*%
G01*
G04 APERTURE LIST*
%TA.AperFunction,ComponentPad*%
%ADD10R,1.700000X1.700000*%
%TD*%
%TA.AperFunction,SMDPad,CuDef*%
%ADD11R,0.900000X1.200000*%
%TD*%
%TA.AperFunction,SMDPad,CuDef*%
%ADD12R,2.750000X2.700000*%
%TD*%
%TA.AperFunction,ViaPad*%
%ADD13C,0.800000*%
%TD*%
%TA.AperFunction,Conductor*%
%ADD14C,0.250000*%
%TD*%
G04 APERTURE END LIST*
D10*
%TO.P,J2,1*%
%TO.N,Net-(D1-Pad1)*%
X188800000Y-95800000D03*
%TD*%
%TO.P,J3,1*%
%TO.N,Net-(D1-Pad1)*%
X191770000Y-110200000D03*
%TD*%
%TO.P,J4,1*%
%TO.N,Net-(J1-Pad1)*%
X195750000Y-103400000D03*
%TD*%
%TO.P,J1,1*%
%TO.N,Net-(J1-Pad1)*%
X180850000Y-107400000D03*
%TD*%
D11*
%TO.P,D1,2*%
%TO.N,Net-(D1-Pad2)*%
X184850000Y-110140000D03*
%TO.P,D1,1*%
%TO.N,Net-(D1-Pad1)*%
X188150000Y-110140000D03*
%TD*%
D12*
%TO.P,U1,2*%
%TO.N,Net-(D1-Pad2)*%
X181180000Y-103730000D03*
%TO.P,U1,1*%
%TO.N,Net-(J1-Pad1)*%
X194880000Y-106330000D03*
%TD*%
D13*
%TO.N,Net-(J1-Pad1)*%
X182880000Y-107950000D03*
X193600000Y-108300000D03*
%TD*%
D14*
%TO.N,Net-(D1-Pad2)*%
X181180000Y-103730000D02*
X181180000Y-104280000D01*
X181180000Y-103730000D02*
X181180000Y-103780000D01*
X184850000Y-107450000D02*
X184850000Y-110140000D01*
X181180000Y-103780000D02*
X184850000Y-107450000D01*
%TO.N,Net-(D1-Pad1)*%
X188800000Y-95800000D02*
X190650000Y-95800000D01*
X191065001Y-96215001D02*
X191065001Y-98665001D01*
X190650000Y-95800000D02*
X191065001Y-96215001D01*
X191065001Y-98665001D02*
X191450000Y-99050000D01*
X191450000Y-99050000D02*
X191450000Y-102600000D01*
X191450000Y-102600000D02*
X188850000Y-105200000D01*
X188850000Y-105200000D02*
X188850000Y-107550000D01*
X191710000Y-110140000D02*
X191770000Y-110200000D01*
X188150000Y-110140000D02*
X191710000Y-110140000D01*
X188150000Y-108250000D02*
X188850000Y-107550000D01*
X188150000Y-110140000D02*
X188150000Y-108250000D01*
%TO.N,Net-(J1-Pad1)*%
X193900000Y-107310000D02*
X194880000Y-106330000D01*
X194880000Y-104270000D02*
X195750000Y-103400000D01*
X194880000Y-106330000D02*
X194880000Y-104270000D01*
X182880000Y-107950000D02*
X182700000Y-107770000D01*
X182330000Y-107400000D02*
X182880000Y-107950000D01*
X180850000Y-107400000D02*
X182330000Y-107400000D01*
X194880000Y-107020000D02*
X193600000Y-108300000D01*
X194880000Y-106330000D02*
X194880000Y-107020000D01*
%TD*%
M02*
